<?xml version="1.0" encoding="utf-8"?>
<!-- Generator: Adobe Illustrator 25.0.0, SVG Export Plug-In . SVG Version: 6.00 Build 0)  -->
<svg version="1.1" xmlns="http://www.w3.org/2000/svg" xmlns:xlink="http://www.w3.org/1999/xlink" x="0px" y="0px"
	 viewBox="0 0 340 340" style="enable-background:new 0 0 340 340;" xml:space="preserve">
<style type="text/css">
	.st0{fill:#FFFFFF;}
	.st1{fill:#5A5A5A;}
	.st2{fill:#BBBDBF;}
	.st3{opacity:0.1091;}
	.st4{fill:#F26B32;}
	.st5{fill:#211E1F;}
	.st6{fill:#6F6F6F;}
	.st7{fill:#A6DAF6;}
	.st8{fill:none;stroke:#211E1F;stroke-width:3;stroke-linecap:round;stroke-linejoin:round;stroke-miterlimit:10;}
</style>
<g id="Ref">
</g>
<g id="Art">
	<g>
		<path class="st1" d="M256.4,88.6c-9.8,0-19.1,2.2-27.5,6.1c-13.4-31.9-45-54.3-81.8-54.3c-40.6,0-74.7,27.2-85.3,64.4
			c-19.1,10-32.2,30-32.2,53.1c0,33.1,26.8,59.9,59.9,59.9h165.7c0.1,0,0.3,0,0.4,0c0.3,0,0.5,0,0.8,0c35.7,0,64.6-28.9,64.6-64.6
			S292.1,88.6,256.4,88.6z"/>
		<path class="st2" d="M245.8,79.2c-9.8,0-19.1,2.2-27.5,6.1c-13.4-31.9-45-54.3-81.8-54.3C96,31,61.8,58.2,51.2,95.4
			c-19.1,10-32.2,30-32.2,53.1c0,33.1,26.8,59.9,59.9,59.9h165.7c0.1,0,0.3,0,0.4,0c0.3,0,0.5,0,0.8,0c35.7,0,64.6-28.9,64.6-64.6
			S281.5,79.2,245.8,79.2z"/>
		<g>
			<g class="st3">
				<path class="st4" d="M90.7,187.8c-1,6.2-6,7.3-10.8,7.6c0,0,0,0.3,0,0.3c3.1-0.2,6.3-0.7,8.7-2.8c1.6-1.5,2.2-3,2.5-5.1
					C91.1,187.6,90.7,187.6,90.7,187.8z"/>
			</g>
			<g class="st3">
				<path class="st4" d="M89.3,187c-0.1,0.6-0.2,1.2-0.3,1.8c-6.5-2-13-4.1-19.5-6.1c0.5-0.4,1-0.9,1.5-1.3c2-1.7,3.3-2.1,5.9-2.7
					c0,0,0-0.3-0.1-0.3c-2.9,0.7-5.8,1.6-7.6,4.1c-1.1,1.6-1.6,3.5-1.2,5.4c0.5,2.1,2,3.9,3.8,5c2.8,1.7,6.1,2.2,9.3,1.8
					c1.9-0.2,3.7-1,5.3-2.1c2.1-1.5,2.9-3.1,3.3-5.7C89.8,186.6,89.4,186.8,89.3,187z"/>
			</g>
			<g class="st3">
				<path class="st4" d="M89.6,186.6c-0.7,6-4,5.7-9.8-1.1c-2.9-1.5-5.8-3-8.7-4.5c1.3-0.7,2.5-1.4,3.8-2.1c2.4-0.7,4.7-0.7,7.2-0.3
					c0,0,0.1-0.3,0.1-0.3c-5.1-0.6-11.3,0.3-13.6,5.6c-1.3,3,0.3,6.1,2.6,8c2.8,2.2,6.7,3.1,10.2,2.5c1.9-0.3,3.6-0.9,5.2-2.1
					c2.1-1.5,3-3.2,3.4-5.7C90,186.5,89.7,186.4,89.6,186.6z"/>
			</g>
			<g class="st3">
				<path class="st4" d="M86.3,192.5c-1.4,0.6-2.7,1.2-4.3,1.4c-0.8,0-1.6,0.1-2.5,0.1c0.3-5.3,0.6-10.6,0.8-16
					c0.4,0.1,0.8,0.1,1.2,0.2c3.5,0.4,6.1,1.9,8.3,4.7c0,0,0.3-0.2,0.3-0.2c-3.5-4.5-9.2-5.9-14.7-4.3c-3.5,1-6.8,4.1-6.5,8
					c0.2,2.2,1.3,3.8,3,5.2c4.1,3.4,9.8,3.2,14.5,1.1C86.4,192.8,86.3,192.5,86.3,192.5z"/>
			</g>
			<g class="st3">
				<path class="st4" d="M89.9,187.4c-0.1,4.7-3.3,4.1-9.5-1.8c-15.4-5.8-12.1-5.2,9.9,1.7c0,0.3,0.4,0.3,0.3,0
					c-0.3-2.2-0.7-3.7-2.4-5.3c-2.2-2.1-5.4-3.1-8.4-3.2c-4.7-0.1-11.2,2.5-11.3,8.1c-0.1,4.5,4.3,7.5,8.3,8.3
					c2.5,0.5,5.1,0.3,7.5-0.5c3.5-1.3,5.7-3.7,6.3-7.4C90.6,186.7,90,187.2,89.9,187.4z"/>
			</g>
			<g class="st3">
				<path class="st4" d="M90.2,186.7c0.1,0,0.2,0,0.4,0c0,0.2,0.3,0.2,0.3,0c-0.3-2.8-1.4-5-3.9-6.6c-2.1-1.3-4.5-2-7-2
					c-5.2-0.1-12.7,3.4-11.1,9.8c0.9,3.7,4.7,5.9,8.2,6.6c3.1,0.6,6.5,0.2,9.2-1.4c2.6-1.5,3.8-3.5,4.3-6.4
					C90.6,186.4,90.2,186.5,90.2,186.7z"/>
			</g>
			<g class="st3">
				<path class="st4" d="M90.3,187.2c-0.5,2.5-0.4,2.5,0.4-0.1c0,0.3,0.4,0.3,0.3,0c-0.3-2.1-0.7-3.7-2.3-5.2
					c-2.2-2.2-5.5-3.2-8.6-3.3c-4.7-0.1-11,2.5-11.3,7.9c-0.2,3.7,2.9,6.5,6.1,7.8c3,1.2,6.6,1.2,9.7,0.1c3.6-1.3,5.7-3.7,6.3-7.4
					C90.9,186.7,90.4,187,90.3,187.2z"/>
			</g>
			<g class="st3">
				<path class="st4" d="M69.7,188.8c-1.4-8.4,5.7-8.8,21.4-1c0,0.3,0.3,0.3,0.3,0c-0.2-2.2-0.7-3.8-2.3-5.4
					c-2.2-2.2-5.4-3.2-8.4-3.3c-2.4-0.1-4.8,0.4-7,1.6c-3.4,1.8-4.7,4.5-4.3,8.2C69.4,188.9,69.7,188.9,69.7,188.8z"/>
			</g>
			<g class="st3">
				<path class="st4" d="M90.8,187.2c0.1,1.7-0.7,3-2.2,4c-0.9,1.6-2.2,2.6-3.9,3c-2,0.6-3.9,0.8-6,0.5c-1.9-0.2-3.9-0.7-5.4-1.8
					c-0.5-0.4-1.1-0.9-1.6-1.3c-2.7-14.1,3.8-15.6,19.5-4.4c0,0.3,0.3,0.2,0.3,0c-0.4-3.7-2.5-6.4-6.1-7.7
					c-4.2-1.5-8.8-1.2-12.5,1.3c-4.9,3.3-4.4,9.2,0.3,12.4c3.8,2.5,9.8,2.8,13.7,0.4c2.5-1.5,3.8-3.3,4.2-6.3
					C91.1,187.2,90.8,187,90.8,187.2z"/>
			</g>
			<g class="st3">
				<path class="st4" d="M89.5,187.3c-0.1,4.8-3.5,4.4-10.1-1.2c-12.2-1.2-13-3.5-2.4-7.1c5.2-0.6,12.1,0.8,12.9,8.2
					c0,0.3,0.3,0.2,0.3,0c-0.2-2.2-0.7-3.7-2.3-5.3c-2.9-2.8-7.2-3.6-11-3.2c-5,0.6-10.6,5.1-8.3,10.6c1.5,3.6,5.3,5.3,8.9,5.7
					c2.5,0.3,4.9,0,7.2-1.1c3-1.4,4.8-3.5,5.3-6.9C90.2,186.6,89.6,187.1,89.5,187.3z"/>
			</g>
			<g class="st3">
				<path class="st4" d="M90,188c-0.4,5.6-4.8,8-13.1,7.2c-1.5-0.3-2.9-0.9-4.2-1.7c-1.6-1.1-3-2.6-3.5-4.6
					c-0.7-2.6,0.5-5.1,2.4-6.7c1.1-0.9,2.4-1.6,3.8-2c5.8-1.9,10.9,0.7,15.2,7.7c0,0.4,0.3,0.3,0.3,0c-0.4-3.7-2.4-6.1-5.9-7.6
					c-5.4-2.4-14.8-0.6-16.1,6c-1.4,7,7.4,10.3,13,9.5c2.2-0.3,4.4-1.2,6.1-2.7c1.7-1.5,2.3-3,2.7-5.3C90.6,187.3,90,187.8,90,188z"
					/>
			</g>
			<g class="st3">
				<path class="st4" d="M86.6,192.7c-1.8,0.8-3.5,1.4-5.5,1.5c-0.8,0.1-1.6,0.1-2.5-0.1c-6.3-0.5-2.2-2.9,12.4-7.4
					c0,0.1,0.3,0.1,0.3,0c-0.3-2.2-0.8-3.7-2.3-5.3c-1.5-1.6-3.9-2.7-6.1-3c-4.1-0.7-8.8,0-11.8,3.2c-2.2,2.3-2.7,5.5-1,8.3
					c1.1,1.8,3,3.1,4.8,3.9c3.9,1.6,8,1,11.7-0.6C86.7,193,86.6,192.7,86.6,192.7z"/>
			</g>
			<g class="st3">
				<path class="st4" d="M89.6,187.9c-4.9-2.6-9.8-5.2-14.7-7.9c0.8-0.2,1.5-0.4,2.3-0.5c5.4-0.8,9.7,1.9,12.9,8.2
					c0,0.3,0.3,0.3,0.3,0c-0.2-2.2-0.7-3.7-2.3-5.3c-2.2-2.2-5.4-3.2-8.4-3.3c-5.5-0.2-13.7,4-10.9,10.7c1.6,3.9,6.1,5.8,10.1,5.9
					c2.3,0.1,4.9-0.5,6.9-1.6c2.7-1.5,4-3.7,4.4-6.6C90.4,187.1,89.6,187.7,89.6,187.9z"/>
			</g>
			<g class="st3">
				<path class="st4" d="M89.6,185.1c0.1,0.6,0.1,1.2,0.2,1.9c0,0.1,0.3,0,0.3,0c-0.1-0.6-0.1-1.3-0.2-1.9
					C89.9,185,89.6,185.1,89.6,185.1z"/>
			</g>
		</g>
		<g>
			<g class="st3">
				<path class="st4" d="M151.4,189.2c-1.4,3.5-3.8,5.5-7,6c0,0,0,0.3,0,0.3c3.8-1,6.1-2.5,7.3-6.3
					C151.8,189.2,151.5,189,151.4,189.2z"/>
			</g>
			<g class="st3">
				<path class="st4" d="M150,188.5c-1.9,8.1-8.6,6.2-20.1-5.5c1.7-2.4,4-3.8,6.7-4.2c0,0-0.1-0.3-0.1-0.3c-3.8,1-8.1,3.3-7.7,8
					c0.3,2.8,2.4,5.2,4.7,6.6c2.5,1.5,5.5,2.1,8.5,1.8c1.6-0.2,3-0.5,4.4-1.3c2.3-1.2,3.3-2.7,4.1-5.2
					C150.7,188.1,150.1,188.3,150,188.5z"/>
			</g>
			<g class="st3">
				<path class="st4" d="M150.3,188.1c-6.4-2.3-12.7-4.6-19.1-7c1.9-0.9,3.7-1.8,5.6-2.8c1.6-0.3,3.2-0.2,4.8,0c0,0,0.1-0.3,0.1-0.3
					c-4.8-0.4-11.1,0.5-12.5,6.1c-0.7,2.7,1,5.6,2.9,7.3c2.8,2.4,6.6,3.4,10.1,3c1.9-0.2,3.7-0.7,5.3-1.7c1.8-1.2,2.5-2.6,3.1-4.7
					C150.7,187.9,150.4,187.9,150.3,188.1z"/>
			</g>
			<g class="st3">
				<path class="st4" d="M146.2,193.3c-1.4,0.5-2.9,0.8-4.4,0.8c-4.7-12.4-4.1-17.6,1.8-15.6c2.7,0.7,4.6,2.1,6.5,4.1
					c0,0,0.3-0.2,0.3-0.2c-2.7-2.9-6.3-4.9-10.4-4.8c-2,0-3.8,0.3-5.6,1.2c-2.7,1.3-4.9,3.8-4.6,7c0.2,2.1,1.5,4,3,5.3
					c3.7,3.3,8.9,3.7,13.5,2.4C146.3,193.6,146.2,193.3,146.2,193.3z"/>
			</g>
			<g class="st3">
				<path class="st4" d="M150.6,188.9c-0.8,4.6-3.8,3.6-9.1-3.2c-14.4-7.9-11.2-6.9,9.5,3.1c0,0.4,0.3,0.4,0.3,0
					c0.1-2.2-0.2-3.8-1.6-5.6c-1.9-2.5-4.9-3.8-7.9-4.4c-5-1-12.2,1.3-12.4,7.2c-0.1,4.1,3.4,7.2,7,8.5c2.4,0.9,5.1,1.1,7.6,0.6
					c1.4-0.3,2.9-0.8,4-1.7c1.9-1.3,2.6-2.7,3.2-4.8C151.5,188.3,150.7,188.7,150.6,188.9z"/>
			</g>
			<g class="st3">
				<path class="st4" d="M150.9,188.2c-0.9,2.4-0.7,2.4,0.4,0.1c0,0.2,0.3,0.2,0.3,0c0.1-2.6-0.4-4.4-2.2-6.3
					c-1.9-2-4.5-3.3-7.3-3.7c-5.1-0.8-13,1.6-12.4,8c0.3,3.8,3.7,6.5,7.1,7.7c2.3,0.8,5,1.1,7.4,0.6c3.7-0.7,6.1-2.8,7.2-6.3
					C151.4,188,150.9,188,150.9,188.2z"/>
			</g>
			<g class="st3">
				<path class="st4" d="M151.1,188.7c-0.9,2.4-0.7,2.4,0.4,0c0,0.3,0.3,0.4,0.3,0c0-2.1-0.2-3.8-1.5-5.5c-1.9-2.5-5-4-8-4.4
					c-4.6-0.7-11.3,0.9-12.3,6.2c-0.7,3.7,1.9,6.9,4.9,8.6c2.8,1.6,6.4,2.1,9.5,1.5c3.7-0.8,6.1-2.8,7.3-6.4
					C151.7,188.3,151.1,188.5,151.1,188.7z"/>
			</g>
			<g class="st3">
				<path class="st4" d="M131,189.1c-2.7-8.2,4.3-8.1,20.9,0.2c0,0.3,0.3,0.3,0.3,0c0.1-2.2-0.2-3.9-1.5-5.7c-1.9-2.5-5-3.9-8-4.4
					c-3-0.5-6.3-0.1-9,1.5c-3.2,2-3.9,5-3,8.5C130.7,189.2,131,189.1,131,189.1z"/>
			</g>
			<g class="st3">
				<path class="st4" d="M151.6,188.7c-0.2,1.7-1.1,2.9-2.7,3.7c-1.1,1.5-2.5,2.3-4.3,2.5c-2,0.3-4,0.2-6-0.3
					c-1.8-0.5-3.7-1.3-5.1-2.6c-0.5-0.5-0.9-1-1.4-1.5c-0.6-14.4,6-14.9,19.9-1.5c0,0.3,0.3,0.3,0.3,0c0.1-3.9-1.6-6.5-4.9-8.5
					c-4.4-2.6-11.4-2.6-15.1,1.2c-3.1,3.1-2.2,7.9,1,10.6c3.4,2.8,8.2,3.9,12.4,2.7c3.3-0.9,5.1-2.7,6.2-5.9
					C151.8,188.8,151.6,188.5,151.6,188.7z"/>
			</g>
			<g class="st3">
				<path class="st4" d="M151,188.3c0.1,0-0.2,0-0.2,0C150.7,188.2,151,188.3,151,188.3z"/>
			</g>
			<g class="st3">
				<path class="st4" d="M150.2,188.8c-6.4-2.3-12.7-4.6-19.1-7c2.6-1,5.3-2,7.9-3c5.5-0.1,9.4,3.2,11.6,9.9c0,0.3,0.3,0.3,0.3,0
					c0.1-2.9-0.6-5.1-2.9-7.1c-2.4-2.1-5.9-3.2-9-3.2c-4.7,0-10.6,2.9-10,8.4c0.6,4.5,5.2,7.4,9.3,8.1c2.4,0.4,4.9,0.3,7.2-0.6
					c2.8-1.1,4.4-3,5.3-5.8C151.1,188.1,150.3,188.6,150.2,188.8z"/>
			</g>
			<g class="st3">
				<path class="st4" d="M150.7,189.5c-1,4.7-4.9,6.7-11.7,5.9c-1.6-0.3-3.1-0.8-4.5-1.6c-2.1-1.2-3.8-3-4.4-5.4
					c-0.6-2.2,0-4.3,1.6-6c1.5-1.5,3.4-2.4,5.6-2.7c6-1.1,10.7,2.2,13.9,9.8c0,0.4,0.3,0.4,0.3,0c0.1-3.6-1.4-6.6-4.7-8.4
					c-1.9-1-3.8-1.6-5.9-1.8c-3.1-0.3-7.2,0.4-9.4,2.9c-2.4,2.7-2.3,6-0.4,8.9c2.1,3.2,6.8,4.9,10.5,4.8c2.3-0.1,4.4-0.6,6.3-1.8
					c1.9-1.2,2.7-2.7,3.4-4.8C151.4,188.9,150.7,189.3,150.7,189.5z"/>
			</g>
			<g class="st3">
				<path class="st4" d="M146.5,193.6c-1.9,0.5-4.9,1.4-6.9,0.6c3.9-3.2,7.8-6.4,11.7-9.6c0.5,1.2,0.6,2.4,0.4,3.7
					c0,0.1,0.3,0.1,0.3,0c0.1-2.9-0.7-5.2-3-7.1c-1.8-1.5-4.1-2.5-6.4-2.9c-3.6-0.6-8,0-10.7,2.8c-2.5,2.6-2.4,6-0.5,8.9
					c3.2,4.8,10,5.5,15,4C146.6,193.9,146.5,193.6,146.5,193.6z"/>
			</g>
			<g class="st3">
				<path class="st4" d="M150.3,189.3c-4.5-3.3-8.9-6.6-13.4-9.9c0.8-0.1,1.6-0.1,2.3-0.2c5.5-0.1,9.4,3.2,11.6,9.9
					c0,0.3,0.3,0.4,0.3,0c0.1-2.2-0.2-3.8-1.5-5.6c-1.9-2.5-4.9-3.9-7.9-4.5c-5.4-0.9-14.1,2-12.3,9.1c1.1,4.1,5.2,6.6,9.2,7.2
					c2.3,0.4,4.9,0.2,7.1-0.6c2.9-1.1,4.5-3.1,5.3-5.9C151.1,188.7,150.4,189.1,150.3,189.3z"/>
			</g>
			<g class="st3">
				<path class="st4" d="M150.1,184.9c0.5,1.2,0.6,2.4,0.4,3.7c0,0.1,0.3,0.1,0.3,0c0.2-1.3,0.1-2.6-0.4-3.8
					C150.4,184.8,150.1,184.8,150.1,184.9z"/>
			</g>
		</g>
		<circle class="st5" cx="82.5" cy="167.3" r="8.2"/>
		<circle class="st0" cx="78.9" cy="163.8" r="2.4"/>
		<circle class="st5" cx="138.9" cy="167.3" r="8.2"/>
		<g>
			<g>
				<g>
					<g>
						<g>
							<path class="st6" d="M131.8,59.1c0-0.1,0-0.3-0.1-0.2l-0.1,0.3L131.8,59.1z"/>
							<path class="st6" d="M131.2,58.5c-0.1,0.2-0.2,0.4-0.2,0.7c0.1-0.3,0.1-0.2,0.3-0.6c0.1,0,0.1,0.1,0.1,0.2
								c0-0.1,0.1,0.1,0.2-0.1c-0.1-0.3-0.2-0.3-0.4-0.1C131.2,58.6,131.2,58.6,131.2,58.5z"/>
							<path class="st6" d="M123.1,58.1L123.1,58.1C123.1,58.1,123.1,58.1,123.1,58.1z"/>
							<path class="st6" d="M118,58.6C118,58.6,118,58.6,118,58.6C118,58.6,117.9,58.6,118,58.6z"/>
							<path class="st6" d="M117,58.5C117,58.5,117.1,58.5,117,58.5C117,58.4,117,58.4,117,58.5z"/>
							<path class="st6" d="M123.1,58.1l-0.1-0.1C122.9,58.1,123,58,123.1,58.1z"/>
							<path class="st6" d="M130.1,59.2C130.1,59.2,130.1,59.2,130.1,59.2C130.1,59.2,130.1,59.2,130.1,59.2L130.1,59.2z"/>
							<path class="st6" d="M125.3,57.6L125.3,57.6c0,0,0.1-0.1,0.1-0.1L125.3,57.6z"/>
							<path class="st6" d="M127,57.5c0,0-0.1,0.3-0.1,0.4c0-0.1,0-0.2,0.1-0.2C127,57.7,127,57.6,127,57.5z"/>
							<path class="st6" d="M129.8,58.1L129.8,58.1C129.8,58.1,129.8,58.1,129.8,58.1z"/>
							<path class="st6" d="M124,57.6C124,57.6,124,57.6,124,57.6C124,57.6,124,57.6,124,57.6z"/>
							<path class="st6" d="M92.3,88C92.3,88,92.3,88,92.3,88C92.3,88,92.3,88.1,92.3,88z"/>
							<polygon class="st6" points="90.6,89.7 90.6,89.7 90.4,89.7 							"/>
							<path class="st6" d="M115.4,58.5L115.4,58.5C115.4,58.5,115.4,58.5,115.4,58.5z"/>
							<path class="st6" d="M102.2,65.6c0.3,0.1,0,0.4,0.4,0.5C102.5,66,102.5,65.6,102.2,65.6z"/>
							<path class="st6" d="M130,59.2C130,59.2,130,59.2,130,59.2C130,59.2,130,59.2,130,59.2z"/>
							<path class="st6" d="M102.6,66.1L102.6,66.1L102.6,66.1C102.6,66.1,102.6,66.1,102.6,66.1z"/>
							<path class="st6" d="M111.8,59.9c0,0,0.1,0.1,0.1,0.1C111.9,59.9,111.9,59.9,111.8,59.9z"/>
							<path class="st6" d="M114.6,59.3L114.6,59.3C114.5,59.3,114.6,59.3,114.6,59.3z"/>
							<path class="st6" d="M110.6,60.8c0,0-0.1,0-0.1,0C110.5,60.8,110.6,60.8,110.6,60.8C110.6,60.8,110.6,60.8,110.6,60.8z"/>
							<polygon class="st6" points="109.3,61.4 109.3,61.4 109.4,61.4 							"/>
							<path class="st6" d="M93.3,83.8c-0.1,0-0.2,0-0.3,0C93.2,83.9,93.2,84.1,93.3,83.8z"/>
							<path class="st6" d="M130.1,59.1c0,0.1,0,0.1,0,0.1c0,0,0,0,0,0C130.1,59.1,130.1,59.1,130.1,59.1z"/>
							<path class="st6" d="M111.5,62.8l-0.2,0.1C111.3,62.9,111.4,62.9,111.5,62.8z"/>
							<path class="st6" d="M97.5,74.6L97.5,74.6C97.5,74.6,97.5,74.6,97.5,74.6z"/>
							<path class="st6" d="M110.7,63.2c-0.1-0.1-0.1-0.1-0.2-0.1c0,0,0,0,0,0.1L110.7,63.2z"/>
							<path class="st6" d="M93,83.8L93,83.8L93,83.8z"/>
							<path class="st6" d="M93.2,85.4c0.1-0.2-0.3-0.2-0.5-0.3c0-0.3,0.3,0,0.5-0.1c-0.1-0.2-0.3-0.4-0.3-0.5c0.1,0,0.1,0,0.2,0
								c-0.2-0.2,0.1-0.5-0.2-0.8c0,0,0.1,0,0.1,0c-0.2,0-0.4-0.1-0.5-0.1c0-0.1-0.2-0.2,0.1-0.2c0,0.1,0.1,0.1,0.1,0.1l-0.1-0.1
								c0.4,0,0.1,0.2,0.3,0.2c-0.1-0.2-0.2-0.5-0.1-0.7c0.3,0.1,0,0.4,0.3,0.3L93,83.6c0.6,0-0.1,0.1,0.5,0.1
								c0.2-0.3-0.1-0.4,0.1-0.6c-0.2-0.1-0.3-0.1-0.4-0.2c-0.2-0.5,0.9,0,0.6-0.5c-0.2-0.2-0.6-0.3-0.3-0.5l0.3,0.2
								c0.1-0.3-0.5-0.4-0.1-0.6c0.1,0.1,0,0.3,0.1,0.2c0.4-0.1-0.2-0.2-0.1-0.4l0.3,0.1c0.1-0.3,0-0.7,0-1.1
								c0.1,0.1,0.2,0.2,0.3,0.1c0-0.5,0.4-0.9,0.8-1.2L95,79.1c0,0,0.2,0,0.2,0.1c0.2-0.1-0.2-0.1-0.2-0.2c0-0.1,0.2,0,0.3,0
								c-0.1-0.4-0.1-1,0.3-1.1l0,0.1c0.2-0.2-0.4-0.5-0.1-0.6l0,0.1c0.4-0.4,0.4-1.1,1-1.2c-0.3-0.3,0.4-0.4-0.1-0.7
								c0.4-0.1,0.5,0,0.8-0.2c0.1-0.1-0.2-0.3-0.2-0.5l0.3,0.2l-0.2-0.3l0.4,0.1l0-0.2c0,0-0.2,0-0.2,0c0-0.2,0.5-0.3,0.6-0.2
								l0-0.5C98,73.9,98,74,98,74.1c-0.1-0.4,0.3,0.1,0.2-0.2c-0.1,0-0.1-0.1-0.2-0.2c0.2,0,0.4-0.2,0.4-0.4l0.2,0.2
								c0.3-0.3,0.4-0.7,0.6-1c-0.2,0.1-0.4-0.2-0.4-0.3l0.3,0.2c-0.1-0.2-0.2,0-0.3-0.3c0.1-0.1,0.4,0.1,0.4,0.3l0-0.2
								c0.1,0.1,0.1,0.1,0.2,0.2c-0.1-0.2,0.5,0,0.2-0.3l0.1,0.1c0.3-0.3,0.3-0.5,0.5-0.8c-0.2-0.2-0.1-0.2-0.2-0.5
								c0.2-0.1,0.6-0.2,0.7-0.4c0-0.2-0.1-0.2-0.2-0.4c0.2,0.2,0.4-0.1,0.4,0.2c0.2-0.3,0.3-0.4,0.4-0.8c-0.1,0-0.2,0-0.2-0.1
								c0-0.1,0.2-0.1,0.3,0l0,0c0.1-0.6,1.3-0.3,1.2-0.9l0,0l0.1-0.5c0.2-0.1,0.1,0.2,0.3,0.2c0-0.6,0.6-0.4,0.6-0.9
								c0.7,0.4,0.7-0.7,1.3-0.5l-0.1-0.1c0-0.2,0.2,0,0.2,0c-0.1-0.1-0.2-0.1-0.2-0.2c0.5-0.7,1.5-0.8,2.3-1.1
								c0.3-0.1-0.4-0.9,0.2-0.7l0.1,0.3c0.2-0.3,0.4-0.5,0.7-0.7c0.3-0.1,0.6-0.3,0.8-0.6c0,0.1,0.1,0.2,0,0.2
								c0.2,0.1,0.4-0.2,0.3-0.4c0.1,0,0.1,0.1,0.2,0.2c0.2,0.1,0.1-0.4,0.3-0.2c0,0,0,0.1,0,0.1c0-0.1,0.4-0.2,0.2-0.4
								c0.3,0,0.3-0.3,0.6-0.2c0-0.3,0.4,0,0.3-0.4c0.2,0.4,0.5,0.2,0.6-0.1c0,0.1,0.2,0.1,0.2,0.3c0.1-0.1,0.2-0.2,0.1-0.4
								c0.5,0.4,0.4-0.7,0.8-0.1c0.4-0.4,0.7-0.7,1.1-1c0.1,0.4-0.4,0.2-0.3,0.7c0.3-0.3,0.4-0.8,0.9-0.8c0.1,0,0,0.2,0,0.3
								c0.3-0.3,0.8-0.2,1.1-0.5c0,0,0,0.1,0,0.1c0.1,0,0.2,0,0.1-0.2l-0.1,0.1c-0.2-0.3,0.1-0.7,0.1-0.8c0,0.6,0.4,0,0.4,0.8
								c0-0.1,0.1-0.2,0-0.3c0.1,0,0.1,0.1,0.1,0.3c0.2-0.2,0.1-0.4,0.3-0.4c0,0.1,0,0.1,0,0.3c0.1-0.2,0.1-0.4,0.4-0.4
								c0,0.1,0,0.1,0,0.1c0.3-0.1,0.5-0.6,0.9-0.5c0,0.4,0.2,0.1,0.3,0.5l0.2-0.2l-0.1-0.2c0.2,0,0.3-0.3,0.5-0.2l-0.1,0.2l0.3-0.1
								l-0.2-0.1c0.1-0.2-0.1-0.5,0.1-0.4c0,0,0.2,0,0.3,0.2l0,0c0.1-0.1,0.1-0.3,0.3-0.2c0.1,0.1,0,0.4,0.1,0.5
								c0-0.3,0.4-0.2,0.5-0.5c0,0.1,0,0.3,0,0.3l0-0.3c0.1,0.1,0.1,0.1,0.1,0.3c0.3,0-0.2-0.5,0.2-0.3c0,0,0,0.1,0,0.1
								c0.3,0.1,0.6-0.2,0.9-0.2c0.1,0.4-0.2,0.1-0.1,0.4c0.4-0.1,0.8-0.6,1.2-0.5l-0.1,0c0-0.5,0.3,0.2,0.5-0.1c0,0,0,0.3,0,0.2
								c0.3,0,0.5-0.2,0.9-0.4l0,0.1c0.2,0.1,0.4,0,0.6,0.1c0-0.1,0.1-0.1,0.1-0.3c0.6,0.7,1-0.5,1.5,0.1c-0.1,0-0.1,0.1-0.1,0.1
								c0.1-0.1,0.3-0.1,0.4-0.1c0-0.2-0.1-0.1-0.1-0.3c0-0.1,0.2-0.2,0.3-0.2c-0.2,0.2,0,0.4,0.1,0.5c0-0.1,0-0.1,0-0.2
								c0.2,0.4,0-0.5,0.3-0.2l0,0.1c0.1-0.1,0.2-0.2,0.3-0.2c0.1,0.3-0.1,0.1-0.1,0.3c0.2,0,0.3-0.5,0.5-0.2
								c-0.1,0.1-0.2,0.1-0.2,0.2c0.2,0.3,0.2,0.2,0.3,0.3l0,0l0.3,0.1l-0.1-0.1c0.2-0.7,0.4-0.1,0.7-0.6c-0.3,0.4,0,0.3-0.1,0.6
								c0.1,0.1,0.2,0.2,0.1,0.3c0.1-0.2,0.2,0.2,0.4-0.2c0,0.1,0.1,0,0.1,0.3c0.2-0.1,0-0.2,0-0.3c0.3-0.3,0.6,0.4,1,0
								c0.3-0.2,0.4-0.5,0.7-0.6c0.1,0.2-0.1,0.4-0.1,0.4c0.2,0.2,0.3,0.1,0.4,0c0,0.1,0,0.2,0,0.3c0.1,0,0.1-0.4,0.3-0.2
								c0,0.1-0.1,0.3-0.1,0.4c0.1-0.1,0.3-0.3,0.4-0.3c0,0.2-0.1,0.3-0.2,0.4c0.2-0.1,0.4-0.1,0.5-0.4l-0.1-0.1c0.1,0,0,0.2,0,0.3
								c-0.2,0.2-0.2-0.1-0.2-0.2l0.1-0.1c-0.1-0.6-0.4,0.1-0.6,0l0.1-0.4l-0.2,0.3c0-0.1-0.1-0.3,0-0.4c-0.1-0.2-0.1,0.1-0.3-0.1
								c0,0,0-0.1,0-0.1l-0.2,0.1c0-0.1,0-0.3,0.1-0.2c-0.3-0.3-0.4,0.3-0.5,0l0,0c-0.4,0.1,0,0.3-0.3,0.6l-0.2-0.8l0,0.3
								c0,0-0.1,0-0.1-0.2c-0.1,0.2,0,0.1-0.1,0.3c-0.2-0.3-0.5,0.1-0.6-0.4c-0.1,0.2,0.2,0.2,0,0.3c-0.1-0.5-0.2,0.1-0.4-0.1
								c0.1-0.3,0.2-0.1,0-0.4c-0.1,0.5-0.3-0.1-0.5,0c0,0.4-0.3,0.2-0.6,0.3c0-0.1-0.5-0.2-0.7-0.3l0-0.1c0,0.4-0.3,0.3-0.4,0.4
								c0-0.2,0-0.3,0.1-0.4l-0.2,0c0,0.1-0.1,0.2-0.2,0.2l0-0.3c-0.2,0-0.4,0.4-0.7,0.2c0,0.3,0.3,0.7,0,0.9c0-0.1,0-0.4,0-0.4
								c0,0-0.1,0.1-0.1,0.1l0.1-0.2c-0.1-0.1-0.1,0.2-0.2,0.2c0-0.2-0.1-0.1-0.1-0.3c0,0,0.1,0.1,0.1,0c-0.1,0-0.3-0.1-0.3-0.3
								c0,0.1,0,0.3-0.1,0.3c-0.2,0-0.1-0.2-0.2-0.3c0,0.1-0.2,0-0.2,0.3c-0.1,0-0.1-0.1-0.1-0.2c-0.1,0.1-0.5,0.1-0.4,0.4l0,0l0,0
								l0,0l0,0c-0.3,0.3-0.8-0.1-1.1,0l0-0.1c-0.2,0.1-0.5,0.1-0.6,0.4c-0.1,0-0.2-0.2-0.2-0.3c-0.2,0.1-0.2,0.2-0.4,0.1
								c0.1-0.2-0.1-0.1,0.1-0.1c-0.2-0.1-0.3-0.2-0.5,0.1c0-0.3-0.2-0.3-0.3-0.2l0.2,0.2c-0.1,0.1-0.2,0-0.3,0l0-0.3
								c-0.5-0.3-0.7,0.8-1.1,0.2c-0.1,0.2,0.3,0.1,0.2,0.4c-0.2,0-0.5-0.4-0.6-0.4c-0.3-0.1-0.2,0.5-0.5,0.5c0.1,0.1,0.2,0.4,0,0.6
								c-0.2,0-0.3-0.4-0.2-0.6c0,0,0.1,0,0.1,0.1c0.1-0.1,0.1-0.1,0-0.2l0,0.1c-0.1-0.1-0.4,0-0.4-0.2c-0.1,0.1,0,0.2,0.1,0.2
								c-0.3-0.1-0.4,0.1-0.7,0c0.1,0.1,0.1,0.2,0.1,0.2c-0.4-0.1-0.1,0.3-0.4,0.4c-0.2-0.1,0-0.4-0.3-0.2c-0.2-0.1-0.1-0.3-0.1-0.4
								c-0.2,0.3-0.5,0-0.6,0l0.1-0.1c-0.1,0.1-0.1,0.1-0.2,0.1l0.1,0.2c-0.1,0-0.1,0-0.2-0.1c0,0.2,0.2,0.4,0.1,0.6
								c-0.1-0.1-0.3,0.2-0.4-0.1c0.3,0-0.1-0.3,0.1-0.4c0,0.1-0.1,0.1-0.2,0c0,0,0-0.1,0-0.1c-0.4-0.2,0,0.4-0.3,0.5
								c0-0.2-0.2-0.3-0.2-0.3c0.1,0,0.1,0.3,0.1,0.4c-0.2-0.1-0.2,0.2-0.3,0.2l0.1,0c0,0.2-0.1,0.2-0.2,0.3c-0.1-0.1,0.1-0.1,0-0.2
								c-0.1,0.3-0.4-0.2-0.6,0c-0.1-0.1-0.1-0.3-0.2-0.4c-0.2,0.3-0.3-0.1-0.5,0.1c0.1,0.2,0.1,0.1,0,0.4l0.3-0.3l-0.1,0.4
								c0.1,0,0.2-0.2,0.3-0.2c-0.1,0.2-0.1,0.2,0.1,0.3c-0.3-0.3-0.3,0.3-0.5,0.2l-0.2-0.6c-0.4-0.1-0.4,0.5-0.8,0.5l0.2,0.1
								c0,0.2-0.2,0.1-0.3,0.2c-0.1-0.2-0.2-0.2-0.3-0.3c0.1,0.1-0.3,0.1-0.2,0.5l-0.3-0.2c-0.3,0-0.1,0.7-0.4,0.7
								c0-0.2-0.2-0.3-0.1-0.5c-0.1,0-0.2,0-0.1,0.2c-0.1-0.1-0.1,0.4-0.3,0.2c0,0.1,0.1,0.3,0,0.3c0,0,0-0.1,0-0.1
								c0,0.1-0.1,0.2,0.1,0.4c-0.5-0.4-0.8,0.4-1.2,0c-0.2,0.1-0.4,0.3-0.5,0.4c0-0.1,0-0.1,0-0.1c-0.3,0,0.1,0.6-0.3,0.5
								c-0.3-0.2,0.1-0.2-0.1-0.3c-0.3-0.6-0.3,0.3-0.7,0l0-0.1c-0.3-0.1-0.2,0.4-0.5,0.5c0,0,0-0.1,0-0.1c0,0.4-0.2,0.6-0.4,0.9
								c-0.1-0.3,0-0.2-0.1-0.4c-0.1,0.1,0.2,0.3,0.1,0.5c-0.1-0.1-0.3-0.1-0.5-0.3l0.2-0.1c-0.3-0.2-0.2,0.2-0.4,0.2l-0.1-0.1
								c-0.3,0.2,0,0.6-0.4,0.7l0.1,0.1c0.1,0.4-0.3-0.1-0.3,0.2l-0.3-0.3c-0.1,0.1-0.1,0.6-0.3,0.8c-0.1-0.3,0.1-0.6,0.1-0.8
								c-0.1,0.1-0.3,0.3-0.3,0.5c0-0.1,0-0.2,0.1-0.2c0.1,0.3,0,0.6-0.2,0.7c-0.4-0.6-0.6,0.2-1.1-0.1c-0.2,0.5-0.8,0.5-1.1,0.8
								c0.5,0.3-0.1,0.1,0.3,0.6c-0.1,0.1-0.1,0.1-0.1,0.1l-0.5,0c-0.2-0.1,0-0.2-0.1-0.3c-0.2,0.1-0.3-0.1-0.5-0.1
								c0.2,0.1,0.1,0.3,0,0.3l0.4,0.1c-0.1,0.5-0.6-0.2-0.6,0.3l0-0.2c-0.1,0.2-0.5,0.5-0.3,1c-0.1,0-0.2-0.1-0.2-0.2
								c-0.4,0.3-0.4,1.1-0.8,1.1L99.7,68c0,0.1,0.1,0.3-0.1,0.3c0,0-0.1-0.1-0.1-0.1c0,0.1,0,0.3-0.1,0.4l-0.1-0.2
								c-0.4,0.2-0.2,0.8-0.3,1.1c-0.3-0.3-0.7-0.1-0.8,0l0,0c-0.4,0.4-0.3,0.9-0.4,1.4c-0.6-0.1-0.8,0.7-1.3,0.9
								c0.1,0,0.3,0.2,0.3,0.3c-0.1,0,0.1,0.4-0.3,0.2l0,0c-0.4-0.2-0.4,0.1-0.5,0.2l0.4,0.3c-0.9,0-0.4,1.2-1.2,1
								c0,0.2,0,0.3,0,0.5L95,74.1c-0.2,0.2-0.3,0.4-0.5,0.7l-0.1-0.2c-0.1,0.2,0.6,0.6,0.5,0.8l-0.4-0.2c-0.2,0.3-0.7,0.5-0.5,1
								c-0.1,0-0.2-0.1-0.1-0.2c-0.1,0.2-0.6,0.5,0,0.7c-0.3-0.2-0.2,0.3-0.2,0.6l-0.2-0.2c0.2,0.3,0.3,0.4,0.3,0.6
								c-0.1,0-0.2-0.1-0.1-0.1c-0.2,0.1,0.2,0.2-0.1,0.4l-0.1-0.2c-0.1,0.2,0,0.2,0.1,0.4c0,0.2-0.2,0.3-0.5,0.2
								c0.1,0.1,0.3,0.3,0.2,0.3c-0.1,0-0.1-0.1-0.1-0.1c-0.3,0.2,0.1,0.6-0.2,0.7c-0.1,0-0.1,0-0.2,0c0.1-0.2,0.2-0.4,0.2-0.4
								c-0.2-0.1-0.4,0.1-0.6-0.2c0.1,0.2,0.4,0.7,0.2,0.8c0,0-0.1,0-0.1,0l0,0c0,0,0,0.1,0,0.1c-0.1,0-0.1,0.1-0.1,0.1
								C92,80,92,80.2,91.9,80.3c0.3,0.1,0.2,0.2,0.4,0.2c0,0,0,0,0-0.1c0,0,0,0,0-0.1l0,0c0-0.1,0-0.2,0.1-0.3
								c0.1,0.1,0.2,0.3,0,0.3c0.1,0.1,0.3,0.2,0.4,0.3c-0.4,0-0.7,0.2-1,0.1c0,0.4-0.2,0.8,0.3,1.1c0,0.1-0.2,0-0.3,0.1
								c0-0.1,0-0.1-0.1-0.2c0.1,0.2-0.1,0.5,0.2,0.7c-0.2,0.2-0.3-0.2-0.3,0.1l-0.1-0.1c-0.8,0.4,0.6,1.2-0.3,1.7
								c0.1,0,0.1,0,0.1,0c-0.5,0.7-0.1,1.6-0.8,2.3c-0.2,0.2,0.1,0.3,0.2,0.4l-0.3,0l0.3,0.3c0.2,0.4-0.8,0.4-0.4,0.9l0.2,0
								c-0.1,0.1,0,0.5-0.2,0.4c0,0,0.2,0.1,0.1,0.1l-0.2,0l0.2,0.4c-0.2,0.3-0.6-0.1-0.7,0.3c0,0.2,0.4,0.5,0.5,0.5
								c0-0.1,0.1-0.2,0.3-0.1l0.1,0.1c0.5,0.1,0.9,0.2,1.3,0l-0.3-0.3l0.2,0l0,0.2c0.2-0.1,0-0.2-0.1-0.3c0.1,0,0.2,0,0.3-0.1
								l-0.4-0.3c0.2,0,0.3,0.2,0.5,0c-0.2-0.1-0.4,0-0.5-0.2c0.2-0.1,0.4,0,0.2-0.2c0.1,0,0.2,0,0.2,0.1c-0.1-0.1,0-0.3-0.2-0.4
								c0.3-0.1,0-0.4,0.4-0.3c-0.1-0.1-0.3-0.3-0.3-0.4c0.5,0.3,0.1-0.4,0.7-0.2c-0.4-0.2-0.1-0.5-0.3-0.9c0,0,0.1,0.1,0.1,0.1
								c0.1-0.1,0.2-0.1,0.3-0.2c-0.4-0.1-0.4-0.3-0.6-0.5c0.4-0.1,0.4,0.2,0.8,0.3c-0.3-0.1-0.2-0.4-0.5-0.4
								c0.3-0.1,0.1-0.1,0.5-0.1c-0.5-0.1,0-0.1-0.3-0.3c0.3-0.1,0.5,0.1,0.4-0.2C93.1,85.2,93.2,85.4,93.2,85.4z M94,80.4L94,80.4
								c0,0,0,0.1,0,0.1C94,80.5,94,80.5,94,80.4z M94.2,80c0,0-0.1,0.1-0.1,0.2c-0.1,0-0.2-0.1-0.2-0.1C94,80.1,94.1,80,94.2,80z
								 M92,80.1c0-0.1,0.1-0.1,0.1-0.1C92.1,80.1,92.1,80.1,92,80.1l0.1,0.1C92.1,80.2,92.1,80.1,92,80.1z"/>
							<path class="st6" d="M92.3,80.4C92.3,80.4,92.4,80.4,92.3,80.4C92.4,80.4,92.4,80.4,92.3,80.4L92.3,80.4L92.3,80.4z"/>
							<path class="st6" d="M123.1,58.1L123.1,58.1C123.1,58.1,123.1,58.1,123.1,58.1C123.1,58.1,123.1,58.1,123.1,58.1z"/>
							<polygon class="st6" points="97.4,75.1 97.3,75 97.4,75.1 							"/>
							<path class="st6" d="M125.6,58.9C125.6,58.9,125.6,58.9,125.6,58.9C125.6,59,125.6,58.9,125.6,58.9z"/>
							<path class="st6" d="M126.6,58.9l0.1,0.1C126.7,59,126.6,59,126.6,58.9z"/>
							<path class="st6" d="M127.4,59.1c0,0,0-0.1,0-0.1l0,0L127.4,59.1z"/>
							<path class="st6" d="M115.2,61.1C115.2,61.1,115.2,61.1,115.2,61.1C115.1,61.2,115.2,61.2,115.2,61.1z"/>
							<path class="st6" d="M118.6,59.6c0,0.1-0.1,0.1-0.1,0.2C118.6,59.7,118.6,59.7,118.6,59.6z"/>
							<polygon class="st6" points="111.5,62.8 111.5,62.8 111.5,62.8 							"/>
							<path class="st6" d="M118.4,59.8c0.1,0,0.1,0,0.2,0C118.5,59.7,118.4,59.7,118.4,59.8z"/>
							<path class="st6" d="M130.8,59.3L130.8,59.3C130.8,59.3,130.8,59.3,130.8,59.3L130.8,59.3z"/>
							<path class="st6" d="M130.8,59.3L130.8,59.3C130.9,59.2,130.8,59.2,130.8,59.3z"/>
							<path class="st6" d="M131,59.2L131,59.2C130.9,59.2,130.9,59.2,131,59.2z"/>
							<path class="st6" d="M129.7,59.1l0,0.1C129.7,59.2,129.7,59.2,129.7,59.1z"/>
							<path class="st6" d="M129.4,59.1c0.1,0,0.2,0.2,0.3,0.2l0-0.1C129.7,59.4,129.5,59,129.4,59.1z"/>
							<path class="st6" d="M128.1,57.8l0.3,0.1c0-0.1-0.1-0.3,0-0.3C128.1,57.3,128.5,57.9,128.1,57.8z"/>
							<path class="st6" d="M127.3,57.7c0.1-0.1,0-0.2,0-0.2C127.2,57.6,127.2,57.6,127.3,57.7z"/>
							<path class="st6" d="M121.2,58.1l0-0.3C121.1,57.9,121.2,57.9,121.2,58.1z"/>
							<polygon class="st6" points="120.3,59.5 120.4,59.7 120.4,59.5 							"/>
							<polygon class="st6" points="119.3,57.8 119.3,57.8 119.1,57.9 							"/>
							<path class="st6" d="M109.4,61.1l0.2,0.3C109.6,61.3,109.5,60.9,109.4,61.1z"/>
							<path class="st6" d="M105.7,63.6c-0.1-0.1-0.3-0.1-0.3,0C105.5,63.6,105.7,63.6,105.7,63.6z"/>
							<polygon class="st6" points="95.9,72.7 95.8,72.6 95.8,72.8 							"/>
						</g>
					</g>
				</g>
			</g>
		</g>
		<g>
			<g>
				<g>
					<g>
						<g>
							<path class="st6" d="M283,141.4c0.1,0,0.3,0,0.2-0.1l-0.3,0L283,141.4z"/>
							<path class="st6" d="M283.6,140.8c-0.2-0.1-0.5-0.2-0.8-0.1c0.3,0.1,0.2,0.1,0.6,0.2c0,0.1-0.1,0.2-0.2,0.1
								c0.1,0-0.1,0.1,0.2,0.2c0.2-0.1,0.2-0.3,0-0.4C283.4,140.8,283.5,140.8,283.6,140.8z"/>
							<path class="st6" d="M282.8,132.6L282.8,132.6C282.8,132.7,282.8,132.6,282.8,132.6z"/>
							<path class="st6" d="M281.4,127.7C281.4,127.7,281.5,127.7,281.4,127.7C281.5,127.7,281.4,127.6,281.4,127.7z"/>
							<path class="st6" d="M281.5,126.7C281.5,126.7,281.4,126.7,281.5,126.7C281.5,126.7,281.5,126.7,281.5,126.7z"/>
							<path class="st6" d="M282.8,132.6l0.1-0.2C282.7,132.5,282.8,132.5,282.8,132.6z"/>
							<path class="st6" d="M282.7,139.7C282.7,139.8,282.7,139.8,282.7,139.7C282.7,139.8,282.7,139.8,282.7,139.7L282.7,139.7z"/>
							<path class="st6" d="M283.5,134.8L283.5,134.8c0,0,0.1,0,0.1,0L283.5,134.8z"/>
							<path class="st6" d="M283.9,136.5c0,0-0.3,0-0.4,0c0.1,0,0.2,0,0.2,0.1C283.7,136.5,283.8,136.5,283.9,136.5z"/>
							<path class="st6" d="M283.8,139.2L283.8,139.2C283.8,139.3,283.8,139.3,283.8,139.2z"/>
							<path class="st6" d="M283.3,133.5C283.4,133.5,283.4,133.5,283.3,133.5C283.4,133.5,283.3,133.5,283.3,133.5z"/>
							<path class="st6" d="M248.4,106.8C248.4,106.8,248.4,106.8,248.4,106.8C248.4,106.8,248.4,106.8,248.4,106.8z"/>
							<polygon class="st6" points="246.5,105.4 246.5,105.4 246.5,105.2 							"/>
							<path class="st6" d="M281.1,125.1L281.1,125.1C281.2,125.1,281.2,125.1,281.1,125.1z"/>
							<path class="st6" d="M272.1,113.2c0,0.3-0.4,0.1-0.4,0.4C271.7,113.5,272.1,113.4,272.1,113.2z"/>
							<path class="st6" d="M282.7,139.7C282.7,139.7,282.7,139.7,282.7,139.7C282.7,139.7,282.7,139.7,282.7,139.7z"/>
							<path class="st6" d="M271.7,113.6L271.7,113.6L271.7,113.6C271.7,113.7,271.7,113.6,271.7,113.6z"/>
							<path class="st6" d="M279.3,121.8C279.2,121.8,279.2,121.9,279.3,121.8C279.2,121.9,279.2,121.8,279.3,121.8z"/>
							<path class="st6" d="M280.2,124.4L280.2,124.4C280.2,124.4,280.2,124.4,280.2,124.4z"/>
							<path class="st6" d="M278.2,120.8C278.2,120.7,278.2,120.7,278.2,120.8C278.1,120.7,278.1,120.7,278.2,120.8
								C278.2,120.7,278.2,120.7,278.2,120.8z"/>
							<path class="st6" d="M277.4,119.5C277.3,119.5,277.3,119.5,277.4,119.5L277.4,119.5L277.4,119.5z"/>
							<path class="st6" d="M252.7,107.1c0-0.1,0-0.2,0-0.3C252.7,107,252.5,107.1,252.7,107.1z"/>
							<path class="st6" d="M282.8,139.7c-0.1,0-0.1,0-0.1,0c0,0,0,0,0,0C282.8,139.7,282.8,139.7,282.8,139.7z"/>
							<path class="st6" d="M276.3,121.9l-0.1-0.2C276.2,121.8,276.2,121.8,276.3,121.9z"/>
							<path class="st6" d="M262.5,109.9L262.5,109.9C262.5,109.9,262.5,109.9,262.5,109.9z"/>
							<path class="st6" d="M275.8,121.2c0.1-0.1,0.1-0.2,0.1-0.2c0,0,0,0-0.1,0L275.8,121.2z"/>
							<path class="st6" d="M252.7,106.8L252.7,106.8L252.7,106.8z"/>
							<path class="st6" d="M251.2,107.3c0.2,0,0.1-0.3,0.2-0.6c0.3-0.1,0.1,0.3,0.1,0.5c0.2-0.1,0.3-0.4,0.5-0.4c0,0.1,0,0.1,0,0.2
								c0.2-0.3,0.5,0.1,0.8-0.3c0,0,0,0.1,0,0.1c0-0.2,0-0.4,0-0.5c0.1,0,0.2-0.2,0.2,0c-0.1,0-0.1,0.1-0.1,0.2l0.1-0.1
								c0,0.4-0.2,0.1-0.2,0.4c0.2-0.1,0.5-0.3,0.6-0.2c0,0.3-0.4,0-0.2,0.4l-0.2-0.2c0.1,0.6-0.1-0.1-0.1,0.5
								c0.3,0.1,0.4-0.1,0.7,0c0.1-0.2,0-0.3,0.1-0.5c0.5-0.3,0.2,0.9,0.6,0.5c0.1-0.2,0.2-0.6,0.4-0.3l-0.2,0.4
								c0.3,0.1,0.3-0.5,0.5-0.2c-0.1,0.1-0.3,0.1-0.2,0.1c0.1,0.3,0.2-0.2,0.3-0.2l0,0.3c0.3,0,0.7-0.2,1.1-0.1
								c0,0.1-0.1,0.2-0.1,0.3c0.5-0.1,0.9,0.3,1.3,0.6l0.2-0.2c0,0,0,0.1,0,0.2c0.1,0.2,0.1-0.2,0.2-0.3c0.1,0,0.1,0.2,0,0.3
								c0.3-0.2,1-0.3,1.2,0.1l-0.1,0.1c0.2,0.2,0.4-0.5,0.6-0.2l-0.1,0c0.5,0.3,1.1,0.2,1.3,0.8c0.2-0.4,0.4,0.4,0.7-0.2
								c0.2,0.4,0.1,0.4,0.4,0.8c0.1,0.1,0.3-0.3,0.4-0.3l-0.1,0.3l0.3-0.2l-0.1,0.4l0.2,0c0,0,0-0.2,0-0.2c0.2,0,0.4,0.4,0.3,0.5
								l0.5,0c-0.1,0.1-0.2,0.1-0.2,0.2c0.4-0.2-0.1,0.3,0.2,0.1c0-0.1,0.1-0.2,0.1-0.2c0,0.2,0.3,0.3,0.5,0.4l-0.1,0.2
								c0.3,0.2,0.7,0.2,1.1,0.4c-0.1-0.2,0.1-0.5,0.2-0.4l-0.1,0.3c0.2-0.1-0.1-0.2,0.2-0.3c0.1,0.1-0.1,0.4-0.2,0.4l0.2,0
								c0,0.1-0.1,0.1-0.2,0.2c0.2-0.1,0.1,0.4,0.4,0.2l0,0.1c0.3,0.2,0.6,0.2,0.8,0.3c0.2-0.2,0.2-0.1,0.4-0.3
								c0.2,0.2,0.3,0.5,0.5,0.7c0.2,0,0.2-0.2,0.3-0.3c-0.1,0.2,0.1,0.4-0.1,0.4c0.3,0.2,0.4,0.2,0.9,0.3c0-0.1,0-0.2,0.1-0.2
								c0.1,0,0.1,0.2,0,0.3l0,0c0.6,0,0.5,1.3,1.1,1.1l0,0l0.5,0c0.1,0.1-0.2,0.1-0.2,0.3c0.6-0.1,0.5,0.5,0.9,0.5
								c-0.3,0.8,0.8,0.6,0.7,1.2l0.1-0.1c0.2-0.1,0,0.2,0,0.2c0.1-0.1,0-0.2,0.1-0.2c0.7,0.4,1,1.4,1.4,2.1
								c0.2,0.3,0.8-0.5,0.7,0.1l-0.3,0.1c0.4,0.1,0.6,0.3,0.8,0.6c0.2,0.3,0.4,0.5,0.7,0.7c-0.1,0-0.2,0.1-0.2,0
								c-0.1,0.2,0.3,0.4,0.4,0.3c0,0.1-0.1,0.1-0.2,0.2c0,0.2,0.4,0.1,0.3,0.3c0,0-0.1,0-0.1,0c0.1,0,0.2,0.3,0.4,0.1
								c0,0.3,0.3,0.3,0.3,0.5c0.3-0.1,0.1,0.4,0.5,0.2c-0.4,0.2-0.1,0.5,0.2,0.5c-0.1,0-0.1,0.2-0.2,0.2c0.1,0.1,0.2,0.2,0.4,0.1
								c-0.3,0.5,0.7,0.3,0.2,0.8c0.4,0.3,0.8,0.6,1.1,1c-0.4,0.2-0.3-0.4-0.7-0.2c0.4,0.3,0.8,0.3,0.9,0.7c0,0.1-0.2,0-0.3,0
								c0.4,0.3,0.3,0.7,0.7,1c0,0-0.1,0-0.1,0c0,0.1,0,0.2,0.2,0.1l-0.1,0c0.2-0.2,0.7,0,0.8-0.1c-0.6,0.1,0,0.4-0.7,0.5
								c0.1,0,0.2,0,0.3,0c0,0.1-0.1,0.1-0.2,0.1c0.2,0.2,0.4,0,0.5,0.2c-0.1,0-0.1,0-0.3,0c0.2,0,0.5,0.1,0.5,0.3
								c-0.1,0-0.1,0.1-0.1,0c0.2,0.3,0.7,0.4,0.7,0.8c-0.4,0.1-0.1,0.2-0.4,0.3l0.2,0.2l0.1-0.1c0.1,0.2,0.4,0.2,0.3,0.4L280,128
								l0.2,0.3l0.1-0.2c0.2,0.1,0.4-0.2,0.4,0.1c-0.1,0,0.1,0.2-0.1,0.3l0,0c0.1,0,0.3,0.1,0.3,0.2c-0.1,0.1-0.4,0.1-0.5,0.2
								c0.3,0,0.2,0.4,0.6,0.4c-0.1,0-0.3,0.1-0.3,0.1l0.3,0c-0.1,0.1-0.1,0.1-0.2,0.2c0,0.3,0.4-0.2,0.3,0.1c0,0-0.1,0-0.1,0
								c0,0.3,0.3,0.5,0.3,0.8c-0.3,0.2-0.2-0.2-0.4,0c0.2,0.4,0.7,0.7,0.7,1.1l0-0.1c0.5-0.1-0.2,0.3,0.1,0.5c-0.1,0-0.3,0-0.2,0
								c0,0.3,0.3,0.5,0.5,0.8l-0.1,0c-0.1,0.2,0,0.4,0,0.6c0.1,0,0.1,0.1,0.3,0c-0.6,0.7,0.6,0.9,0.1,1.5c0-0.1-0.1-0.1-0.1-0.1
								c0.1,0.1,0.1,0.2,0.2,0.4c0.2-0.1,0.1-0.1,0.3-0.2c0.1,0,0.3,0.1,0.3,0.2c-0.2-0.1-0.4,0.1-0.5,0.2c0.1,0,0.1,0,0.2,0
								c-0.4,0.3,0.5-0.1,0.2,0.3l-0.1,0c0.1,0.1,0.3,0.2,0.2,0.3c-0.3,0.1-0.1-0.1-0.4-0.1c0,0.2,0.6,0.2,0.3,0.4
								c-0.1-0.1-0.1-0.2-0.2-0.2c-0.3,0.2-0.2,0.2-0.2,0.3l0,0l-0.1,0.3l0.1-0.1c0.7,0.1,0.2,0.4,0.7,0.6c-0.5-0.2-0.3,0-0.6,0
								c-0.1,0.1-0.1,0.2-0.2,0.2c0.3,0.1-0.2,0.2,0.2,0.4c-0.1,0,0,0.1-0.2,0.1c0.1,0.2,0.2-0.1,0.3-0.1c0.4,0.2-0.3,0.6,0.2,1
								c0.2,0.3,0.6,0.3,0.7,0.6c-0.1,0.1-0.4,0-0.4,0c-0.1,0.2-0.1,0.3,0,0.4c-0.1,0-0.2,0-0.3,0.1c0,0.1,0.4,0,0.2,0.2
								c-0.1,0-0.3,0-0.4-0.1c0.1,0.1,0.3,0.3,0.4,0.4c-0.2,0.1-0.3-0.1-0.4-0.1c0.1,0.2,0.2,0.4,0.5,0.4l0.1-0.1
								c0,0.1-0.2,0.1-0.3,0c-0.2-0.1,0.1-0.2,0.2-0.2l0.1,0.1c0.6-0.2-0.1-0.4-0.1-0.6l0.4,0l-0.4-0.2c0.1-0.1,0.3-0.1,0.4,0
								c0.2-0.2-0.2-0.1,0.1-0.3c0,0,0.1,0,0.1,0l-0.1-0.1c0.1,0,0.3-0.1,0.2,0c0.2-0.3-0.4-0.4-0.1-0.5l0,0c-0.2-0.4-0.3,0-0.7-0.2
								l0.7-0.3l-0.3,0c0,0,0-0.1,0.1-0.1c-0.2-0.1-0.1,0-0.3,0c0.3-0.2-0.2-0.5,0.3-0.6c-0.2,0-0.1,0.2-0.3,0
								c0.5-0.1-0.1-0.2,0.1-0.4c0.3,0,0.2,0.2,0.4,0c-0.5,0,0-0.3-0.1-0.5c-0.4,0.1-0.2-0.3-0.4-0.5c0.1,0,0.1-0.5,0.2-0.7l0.1,0
								c-0.4,0-0.3-0.2-0.4-0.4c0.2,0,0.3,0,0.4,0l0-0.2c-0.1,0-0.2-0.1-0.2-0.1l0.3,0c-0.1-0.2-0.4-0.4-0.3-0.7
								c-0.3,0-0.6,0.4-0.9,0.1c0.1,0,0.4-0.1,0.4,0c0,0-0.1-0.1-0.1-0.1l0.3,0.1c0.1-0.1-0.2,0-0.2-0.1c0.2,0,0.1-0.1,0.3-0.1
								c0,0-0.1,0.1,0,0.1c0-0.1,0.1-0.3,0.2-0.4c-0.1,0-0.3,0.1-0.3,0c-0.1-0.2,0.2-0.1,0.3-0.3c-0.1,0,0-0.2-0.3-0.1
								c0-0.1,0.1-0.1,0.2-0.1c-0.2-0.1-0.2-0.5-0.4-0.3l0,0l0,0l0,0l0,0c-0.4-0.3,0-0.8-0.2-1.1l0.1,0c-0.2-0.2-0.2-0.4-0.5-0.5
								c0-0.1,0.1-0.2,0.3-0.2c-0.1-0.1-0.2-0.1-0.1-0.4c0.2,0.1,0.1-0.1,0.2,0.1c0-0.2,0.2-0.3-0.2-0.5c0.3,0,0.3-0.2,0.2-0.3
								l-0.1,0.2c-0.1-0.1-0.1-0.2-0.1-0.3l0.3,0c0.3-0.5-0.9-0.5-0.3-1.1c-0.3,0-0.1,0.3-0.4,0.3c0-0.2,0.3-0.6,0.3-0.6
								c0.1-0.3-0.5-0.1-0.5-0.4c-0.1,0.1-0.4,0.2-0.6,0.1c0-0.2,0.4-0.4,0.5-0.3c0,0,0,0.1,0,0.1c0.1,0,0.1,0.1,0.2,0l-0.1,0
								c0.1-0.1,0-0.4,0.2-0.4c-0.2-0.1-0.2,0-0.2,0.1c0.1-0.3-0.1-0.4-0.1-0.7c0,0.1-0.2,0.2-0.2,0.1c0-0.4-0.3-0.1-0.4-0.3
								c0.1-0.2,0.4-0.1,0.2-0.3c0.1-0.2,0.3-0.2,0.4-0.1c-0.3-0.1,0-0.5-0.1-0.6l0.1,0.1c-0.1,0-0.1-0.1-0.1-0.2l-0.2,0.2
								c0-0.1,0-0.1,0.1-0.2c-0.2,0-0.3,0.2-0.6,0.2c0.1-0.1-0.2-0.2,0-0.4c0,0.3,0.3-0.2,0.4,0.1c-0.1,0-0.1-0.1-0.1-0.2
								c0,0,0.1,0,0.1,0c0.1-0.4-0.4,0-0.5-0.3c0.2,0,0.3-0.2,0.2-0.2c0.1,0.1-0.2,0.2-0.4,0.1c0-0.2-0.2-0.2-0.2-0.3l0,0.1
								c-0.2,0-0.2-0.1-0.3-0.2c0.1-0.1,0.1,0.1,0.2,0c-0.3,0,0.1-0.5-0.1-0.6c0.1-0.1,0.3-0.2,0.3-0.3c-0.3-0.1,0.1-0.3-0.2-0.5
								c-0.2,0.2-0.1,0.2-0.4,0.1l0.4,0.3l-0.4-0.1c0.1,0.1,0.3,0.2,0.3,0.2c-0.2,0-0.2,0-0.3,0.1c0.2-0.3-0.3-0.2-0.2-0.5l0.5-0.3
								c0.1-0.4-0.5-0.3-0.6-0.7l0,0.2c-0.2,0.1-0.1-0.2-0.3-0.3c0.2-0.1,0.2-0.2,0.3-0.3c-0.1,0.1-0.1-0.3-0.5-0.1l0.1-0.3
								c-0.1-0.3-0.7,0-0.8-0.3c0.2,0,0.3-0.2,0.5-0.1c-0.1-0.1-0.1-0.2-0.2-0.1c0.1-0.1-0.4-0.1-0.3-0.3c-0.1,0-0.3,0.1-0.3,0
								c0,0,0.1-0.1,0.1-0.1c-0.1,0.1-0.2-0.1-0.3,0.1c0.3-0.6-0.5-0.7-0.2-1.2c-0.2-0.1-0.4-0.3-0.5-0.5c0.1,0,0.1-0.1,0.1,0
								c0-0.3-0.6,0.2-0.6-0.2c0.2-0.3,0.2,0,0.3-0.1c0.5-0.4-0.3-0.2-0.1-0.6l0.1,0c0.1-0.3-0.4-0.2-0.6-0.4c0,0,0.1,0,0.1-0.1
								c-0.4,0.1-0.7-0.1-0.9-0.3c0.2-0.1,0.2,0,0.3-0.2c-0.1-0.1-0.3,0.3-0.5,0.2c0.1-0.1,0-0.3,0.2-0.5l0.2,0.2
								c0.2-0.3-0.2-0.2-0.2-0.3l0.1-0.1c-0.3-0.2-0.6,0-0.8-0.2l-0.1,0.1c-0.4,0.1,0.1-0.3-0.3-0.2l0.3-0.3c-0.1,0-0.6-0.1-0.8-0.2
								c0.3-0.1,0.6,0,0.8,0c-0.1-0.1-0.3-0.3-0.5-0.2c0.1,0,0.2,0,0.2,0.1c-0.3,0.1-0.6,0.1-0.8-0.1c0.6-0.5-0.3-0.6,0-1.2
								c-0.5-0.1-0.6-0.7-1-1c-0.3,0.6-0.1-0.1-0.5,0.4c-0.1,0-0.1-0.1-0.1-0.1l0-0.5c0-0.2,0.2,0,0.3-0.1c-0.2-0.2,0.1-0.3,0-0.5
								c-0.1,0.2-0.3,0.2-0.3,0l0,0.4c-0.5,0,0.1-0.6-0.4-0.6l0.2-0.1c-0.2,0-0.6-0.4-1-0.2c0-0.1,0.1-0.2,0.2-0.2
								c-0.3-0.3-1.1-0.2-1.2-0.6l0.1-0.1c-0.1,0-0.3,0.1-0.3,0c0,0,0.1-0.1,0.1-0.1c-0.1,0-0.3,0.1-0.4,0l0.2-0.1
								c-0.3-0.4-0.8,0-1.2-0.2c0.2-0.4,0-0.7-0.1-0.8l0-0.1c-0.4-0.3-1-0.1-1.5-0.2c0-0.6-0.8-0.6-1.1-1.1c0,0.1-0.2,0.3-0.3,0.3
								c-0.1-0.1-0.4,0.1-0.2-0.2l0,0c0.1-0.4-0.2-0.4-0.3-0.5l-0.3,0.5c-0.1-0.9-1.2-0.2-1.2-1c-0.2,0.1-0.3,0-0.4,0.1l0.1-0.3
								c-0.3-0.2-0.4-0.3-0.8-0.4l0.1-0.2c-0.2-0.1-0.6,0.7-0.7,0.6l0.1-0.4c-0.4-0.1-0.6-0.6-1.1-0.4c0-0.1,0.1-0.2,0.1-0.2
								c-0.2-0.1-0.6-0.5-0.7,0.1c0.1-0.4-0.4-0.2-0.6-0.1l0.1-0.3c-0.3,0.3-0.3,0.4-0.6,0.4c0-0.1,0-0.2,0.1-0.1
								c-0.1-0.2-0.2,0.2-0.4,0l0.1-0.1c-0.2-0.1-0.2,0-0.4,0.2c-0.1,0.1-0.3-0.2-0.3-0.4c-0.1,0.1-0.2,0.3-0.3,0.2
								c0-0.1,0.1-0.1,0.1-0.2c-0.3-0.3-0.6,0.2-0.7-0.1c0-0.1,0-0.1,0-0.2c0.3,0.1,0.5,0.1,0.4,0.2c0.1-0.2-0.1-0.3,0.1-0.6
								c-0.2,0.1-0.6,0.5-0.8,0.3c0,0,0-0.1,0-0.1l0,0c0,0-0.1,0-0.1,0c-0.1-0.1-0.1-0.1-0.1-0.1c0-0.2-0.2-0.2-0.3-0.2
								c-0.1,0.3-0.2,0.2-0.1,0.5c0,0,0,0,0.1,0c0,0,0,0,0.1,0l0,0c0.1,0,0.2,0,0.3,0c-0.1,0.1-0.2,0.2-0.3,0
								c-0.1,0.2-0.2,0.3-0.2,0.4c-0.1-0.4-0.3-0.7-0.3-0.9c-0.4,0.1-0.8-0.1-1.1,0.4c-0.1,0.1-0.1-0.2-0.1-0.3c0.1,0,0.1,0,0.2-0.1
								c-0.2,0.1-0.5,0-0.7,0.3c-0.2-0.2,0.2-0.3-0.1-0.3l0.1-0.1c-0.5-0.7-1.1,0.8-1.7-0.1c0,0.1,0.1,0.1,0.1,0.1
								c-0.7-0.4-1.6,0.1-2.4-0.5c-0.2-0.1-0.3,0.1-0.4,0.3l0-0.3l-0.3,0.3c-0.3,0.2-0.5-0.8-1-0.3l0,0.2c-0.1,0-0.5,0.1-0.4-0.1
								c0,0-0.1,0.2-0.1,0.1l0-0.2l-0.4,0.3c-0.3-0.1,0-0.6-0.4-0.7c-0.2,0.1-0.4,0.5-0.4,0.6c0.1,0,0.2,0.1,0.2,0.3l-0.1,0.1
								c0,0.5-0.1,0.9,0.2,1.3l0.2-0.3l0.1,0.2l-0.2,0c0.1,0.2,0.2,0,0.3-0.1c0,0.1,0.1,0.2,0.1,0.2l0.2-0.4c0,0.2-0.1,0.4,0,0.5
								c0.1-0.2-0.1-0.4,0.1-0.5c0.1,0.2,0.1,0.4,0.2,0.2c0,0.1,0,0.2-0.1,0.2c0.1-0.1,0.3-0.1,0.4-0.3c0.1,0.3,0.4-0.1,0.4,0.4
								c0-0.1,0.2-0.3,0.3-0.4c-0.2,0.5,0.4,0.1,0.3,0.6c0.2-0.5,0.5-0.2,0.8-0.4c0,0-0.1,0.1-0.1,0.1c0.1,0.1,0.2,0.2,0.2,0.3
								c0.1-0.4,0.3-0.5,0.4-0.7c0.1,0.4-0.2,0.4-0.1,0.8c0-0.3,0.3-0.3,0.3-0.6c0.1,0.2,0.1,0.1,0.1,0.5c0.1-0.5,0.1-0.1,0.3-0.4
								c0.2,0.3,0,0.5,0.2,0.3C251.4,107.1,251.2,107.3,251.2,107.3z M256.3,107.4L256.3,107.4c0,0-0.1,0-0.1,0
								C256.2,107.3,256.2,107.3,256.3,107.4z M256.7,107.5c0,0-0.1,0-0.2-0.1c0-0.1,0-0.2,0.1-0.2
								C256.5,107.3,256.6,107.4,256.7,107.5z M256.2,105.3C256.3,105.3,256.3,105.4,256.2,105.3
								C256.3,105.4,256.2,105.4,256.2,105.3l-0.1,0.1C256.2,105.4,256.2,105.4,256.2,105.3z"/>
							<path class="st6" d="M256,105.7C256,105.7,256,105.7,256,105.7C256,105.7,256,105.7,256,105.7L256,105.7L256,105.7z"/>
							<path class="st6" d="M282.7,132.7L282.7,132.7C282.7,132.7,282.7,132.7,282.7,132.7C282.7,132.7,282.7,132.7,282.7,132.7z"/>
							<polygon class="st6" points="262.1,109.8 262.1,109.8 262,109.8 							"/>
							<path class="st6" d="M282.3,135.2C282.3,135.2,282.3,135.3,282.3,135.2C282.3,135.3,282.3,135.2,282.3,135.2z"/>
							<path class="st6" d="M282.4,136.3l-0.1,0.2C282.4,136.3,282.4,136.3,282.4,136.3z"/>
							<path class="st6" d="M282.4,137c0.1,0,0.1,0,0.1,0l0,0L282.4,137z"/>
							<path class="st6" d="M278.6,125.3C278.5,125.3,278.5,125.3,278.6,125.3C278.4,125.2,278.5,125.3,278.6,125.3z"/>
							<path class="st6" d="M280.6,128.5c-0.1,0-0.1,0-0.2-0.1C280.4,128.5,280.4,128.5,280.6,128.5z"/>
							<polygon class="st6" points="276.3,121.9 276.3,121.9 276.3,121.9 							"/>
							<path class="st6" d="M280.4,128.2c0,0.1,0,0.1,0.1,0.2C280.4,128.3,280.4,128.3,280.4,128.2z"/>
							<path class="st6" d="M282.7,140.4L282.7,140.4C282.7,140.5,282.7,140.5,282.7,140.4L282.7,140.4z"/>
							<path class="st6" d="M282.8,140.5L282.8,140.5C282.8,140.5,282.8,140.5,282.8,140.5z"/>
							<path class="st6" d="M282.9,140.6L282.9,140.6C282.8,140.5,282.8,140.6,282.9,140.6z"/>
							<path class="st6" d="M282.7,139.4l-0.1,0C282.7,139.4,282.7,139.4,282.7,139.4z"/>
							<path class="st6" d="M282.7,139.1c0,0.1-0.2,0.2-0.1,0.3l0.1,0C282.5,139.4,282.8,139.1,282.7,139.1z"/>
							<path class="st6" d="M283.8,137.6l0,0.3c0.1-0.1,0.2-0.1,0.3,0C284.3,137.5,283.8,138,283.8,137.6z"/>
							<path class="st6" d="M283.8,136.7c0.1,0.1,0.2,0,0.2,0C283.9,136.6,283.9,136.6,283.8,136.7z"/>
							<path class="st6" d="M282.5,130.8l0.2-0.1C282.6,130.6,282.6,130.8,282.5,130.8z"/>
							<polygon class="st6" points="280.9,130.1 280.7,130.2 281,130.2 							"/>
							<polygon class="st6" points="282.4,128.9 282.4,128.9 282.3,128.7 							"/>
							<path class="st6" d="M277.7,119.6l-0.2,0.2C277.6,119.8,277.9,119.6,277.7,119.6z"/>
							<path class="st6" d="M274.7,116.3c0.1-0.1,0.1-0.3-0.1-0.3C274.6,116.1,274.6,116.3,274.7,116.3z"/>
							<polygon class="st6" points="264.1,108 264.3,107.9 264.1,107.9 							"/>
						</g>
					</g>
				</g>
			</g>
		</g>
		<g>
			<path class="st7" d="M232.7,235.5c0,0,23.5,21.2,10.6,27C230.3,268.4,232.7,235.5,232.7,235.5z"/>
			<path class="st7" d="M178.6,235.5c0,0,23.5,21.2,10.6,27S178.6,235.5,178.6,235.5z"/>
			<path class="st7" d="M151.6,281.3c0,0,23.5,21.2,10.6,27S151.6,281.3,151.6,281.3z"/>
			<path class="st7" d="M205.7,281.3c0,0,23.5,21.2,10.6,27S205.7,281.3,205.7,281.3z"/>
			<path class="st7" d="M124.6,235.5c0,0,23.5,21.2,10.6,27S124.6,235.5,124.6,235.5z"/>
		</g>
		<path class="st8" d="M102.4,183.2c0-4.9,3.7-8.8,8.2-8.8c4.5,0,8.2,3.9,8.2,8.8"/>
		<circle class="st0" cx="135.3" cy="163.8" r="2.4"/>
	</g>
</g>
</svg>
